<?xml version="1.0" encoding="UTF-8" standalone="no"?>
<!-- Created with Inkscape (http://www.inkscape.org/) -->

<svg
   width="700"
   height="204"
   viewBox="0 0 700 204"
   version="1.1"
   id="svg1"
   xmlns="http://www.w3.org/2000/svg"
   xmlns:svg="http://www.w3.org/2000/svg">
  <defs
     id="defs1">
    <rect
       x="140.02478"
       y="167.28625"
       width="671.62329"
       height="194.54771"
       id="rect3" />
  </defs>
  <g
     id="layer2"
     transform="matrix(1.0759094,0,0,1.0759094,-220.90857,-455.66421)">
    <path
       style="font-size:37.3333px;font-family:'Creato Display';-inkscape-font-specification:'Creato Display';text-align:end;text-anchor:end;white-space:pre;fill:#ffffff;stroke-width:3"
       d="m 715.35148,443.60451 v -9.29599 c 0,-4.74133 2.128,-7.35466 5.41333,-7.35466 l 1.86667,0.0747 v -2.688 c -0.56,-0.112 -1.232,-0.18667 -1.75467,-0.18667 -2.87466,0 -4.62933,1.38133 -5.67466,4.74133 v -4.55466 h -2.94933 v 19.26398 z m 17.50935,0.37334 c 4.85333,0 7.50399,-2.38934 8.39999,-6.23467 h -2.76266 c -0.672,2.42667 -2.53867,4.06933 -5.63733,4.06933 -3.584,0 -6.04799,-2.12799 -6.12266,-7.35466 h 14.85865 c 0.0747,-0.29866 0.0747,-0.63466 0.0747,-0.93333 0,-5.37599 -3.06133,-9.55732 -9.03466,-9.55732 -5.93599,0 -8.99733,4.06933 -8.99733,10.00532 0,6.19733 3.28534,10.00533 9.22133,10.00533 z m -0.224,-17.84532 c 3.32266,0 5.52533,2.05333 5.936,6.23466 h -11.83466 c 0.41066,-4.18133 2.576,-6.23466 5.89866,-6.23466 z m 20.49597,17.84532 c 5.67467,0 8.4,-3.62134 8.4,-7.392 h -2.8 c -0.448,3.248 -2.38933,5.00266 -5.6,5.00266 -3.65866,0 -5.89866,-2.57599 -5.89866,-7.61599 0,-5.04 2.24,-7.61599 5.89866,-7.61599 3.65867,0 5.22667,2.31466 5.6,4.85333 h 2.8 c 0,-3.39733 -2.50133,-7.24266 -8.4,-7.24266 -5.71199,0 -8.99732,3.84533 -8.99732,10.00532 0,6.19733 3.28533,10.00533 8.99732,10.00533 z m 19.71197,0 c 5.97332,0 9.25865,-3.808 9.25865,-10.00533 0,-6.15999 -3.28533,-10.00532 -9.25865,-10.00532 -5.936,0 -9.22133,3.84533 -9.22133,10.00532 0,6.19733 3.28533,10.00533 9.22133,10.00533 z m 0,-2.38934 c -3.88267,0 -6.12267,-2.57599 -6.12267,-7.61599 0,-5.04 2.24,-7.61599 6.12267,-7.61599 3.91999,0 6.15999,2.57599 6.15999,7.61599 0,5.04 -2.24,7.61599 -6.15999,7.61599 z m 15.56802,2.016 v -9.29599 c 0,-4.74133 2.12799,-7.35466 5.41332,-7.35466 l 1.86667,0.0747 v -2.688 c -0.56,-0.112 -1.232,-0.18667 -1.75467,-0.18667 -2.87466,0 -4.62933,1.38133 -5.67466,4.74133 v -4.55466 h -2.94933 v 19.26398 z m 16.65067,0.37334 c 3.43467,0 5.712,-1.49334 6.79466,-4.21867 v 3.84533 h 2.94933 V 417.0232 h -3.09866 v 10.97599 c -1.08267,-2.688 -3.36,-4.03199 -6.64533,-4.03199 -5.18933,0 -8.36266,3.69599 -8.36266,10.00532 0,6.30933 3.17333,10.00533 8.36266,10.00533 z m 0.672,-2.38934 c -3.50933,0 -5.93599,-2.35199 -5.93599,-7.61599 0,-5.264 2.42666,-7.61599 5.93599,-7.61599 3.54666,0 5.97333,2.35199 5.97333,7.61599 0,5.264 -2.42667,7.61599 -5.97333,7.61599 z m 20.23462,2.38934 c 5.89866,0 7.98933,-2.65067 7.98933,-5.86133 0,-3.36 -2.24,-4.74133 -5.824,-5.264 l -3.808,-0.56 c -1.64266,-0.224 -2.68799,-0.82133 -2.68799,-2.688 0,-2.20266 1.15733,-3.50933 4.33066,-3.50933 3.73333,0 4.33066,1.82934 4.51733,3.808 h 2.94933 c 0,-3.28533 -1.82933,-5.93599 -7.46666,-5.93599 -5.6,0 -7.42933,2.65066 -7.42933,5.86132 0,3.09867 1.75467,4.44267 5.376,4.96533 l 3.77066,0.56 c 1.97867,0.29867 3.17333,1.15733 3.17333,2.912 0,1.86667 -1.008,3.584 -4.85333,3.584 -3.88266,0 -4.85333,-1.71733 -5.03999,-4.10667 h -2.94933 c 0,3.584 2.09066,6.23467 7.95199,6.23467 z"
       id="text1"
       transform="matrix(4.4519341,0,0,4.4519341,-2856.7974,-1363.4712)"
       aria-label="records" />
    <path
       id="text2"
       style="font-size:37.3333px;font-family:'Creato Display';-inkscape-font-specification:'Creato Display';text-align:end;writing-mode:lr-tb;direction:ltr;text-anchor:end;white-space:pre;shape-inside:url(#rect3);display:inline;fill:#ffffff;fill-opacity:1;stroke-width:3"
       d="m 725.25909,175.01483 c -6.53333,0 -9.63154,3.24835 -9.63154,7.95235 0,3.73333 1.82896,5.71168 7.20495,6.53301 l 4.03228,0.59779 c 4.368,0.63467 5.48771,2.16531 5.48771,4.21864 0,3.43466 -1.9786,5.56251 -7.0186,5.56251 -5.15199,0 -6.86923,-2.05312 -7.35456,-6.23445 h -3.02372 c 0,5.67466 3.28482,8.69844 10.30348,8.69844 7.01866,0 10.30413,-3.09878 10.30413,-8.17611 0,-4.032 -2.65068,-6.01077 -7.76534,-6.75743 l -4.03162,-0.59713 c -3.92,-0.59734 -4.92863,-1.82962 -4.92863,-4.03228 0,-3.248 1.97931,-5.30135 6.34731,-5.30135 4.48,0 6.30877,1.94174 6.75677,5.86173 h 2.94957 c 0,-5.18933 -3.09886,-8.32572 -9.63219,-8.32572 z m 52.93867,0.37337 v 26.44047 0.14108 h 3.09852 v -0.28085 -26.3007 z m 8.58688,0.0374 c -1.232,0 -1.90426,0.74658 -1.90426,1.71725 0,0.97067 0.67226,1.7179 1.90426,1.7179 1.232,0 1.94101,-0.74723 1.94101,-1.7179 0,-0.97067 -0.70901,-1.71725 -1.94101,-1.71725 z m -19.03997,6.90705 c -3.24799,0 -5.22658,1.53074 -6.30925,3.92007 v -3.5467 h -2.94957 v 18.67906 0.58467 h 3.09853 v -0.66669 -10.08562 c 0,-3.88266 2.09068,-6.3834 5.30134,-6.3834 3.09867,0 4.25604,1.67991 4.25604,4.89057 v 12.24514 h 3.09853 v -12.73072 c 0,-4.66666 -2.09029,-6.90638 -6.49562,-6.90638 z m 34.30883,0 c -3.472,0 -5.71152,1.4933 -6.79418,4.21863 v -3.84526 h -2.94957 v 22.67066 c 1.29767,1.10816 2.32671,2.4287 3.0854,3.91022 h 0.0131 v -10.97606 c 1.08267,2.688 3.35989,4.03228 6.64523,4.03228 5.18932,0 8.36312,-3.69624 8.36312,-10.00557 0,-6.30932 -3.1738,-10.0049 -8.36312,-10.0049 z m -63.27955,0.37337 v 12.73071 c 0,4.66666 2.05353,6.90639 6.45886,6.90639 0.19275,0 0.38049,-0.005 0.56432,-0.0157 1.47718,-0.0836 2.66942,-0.49858 3.61954,-1.17458 0.94706,-0.67383 1.65405,-1.60698 2.1628,-2.72974 v 3.5467 h 2.94891 v -19.26373 h -3.09852 v 10.75165 c 0,3.88266 -2.09069,6.38406 -5.30135,6.38406 -3.09866,0 -4.25604,-1.67991 -4.25604,-4.89058 v -12.24513 z m 46.4798,0 v 19.26373 h 3.09853 v -19.26373 z m 16.09041,2.01581 c 3.54666,0 5.97394,2.35173 5.97394,7.61572 0,5.264 -2.42728,7.61638 -5.97394,7.61638 -3.50934,0 -5.93589,-2.35238 -5.93589,-7.61638 0,-5.26399 2.42655,-7.61572 5.93589,-7.61572 z"
       transform="matrix(2.976469,0,0,2.976469,-1922.0999,-97.4108)" />
    <circle
       style="fill:#ffffff;fill-opacity:1;stroke-width:2.99443"
       id="path3"
       cx="249.84955"
       cy="568.45532"
       r="44.526886" />
  </g>
</svg>
